<?xml version="1.0" encoding="UTF-8"?>
<svg id="Layer_1" xmlns="http://www.w3.org/2000/svg" version="1.1" viewBox="0 0 597.62 119.91">
  <!-- Generator: Adobe Illustrator 30.4.0, SVG Export Plug-In . SVG Version: 2.1.4 Build 226)  -->
  <defs>
    <style>
      .st0 {
        fill: blue;
      }
    </style>
  </defs>
  <g>
    <circle class="st0" cx="38.07" cy="81.55" r="38.07"/>
    <polygon class="st0" points="126.31 119.91 96.87 119.91 39.23 0 68.61 0 126.31 119.91"/>
  </g>
  <g>
    <path class="st0" d="M524.31,106.26v13.17h-12.68c-4.34-.19-8.14-1.23-11.27-2.95-5.74-3.17-9.13-8.74-9.13-15.73v-35.83h-12.38c-10.28,0-17.13,5.94-17.13,14.76v39.82h-15.81V51.74h15.81v8.05c2.91-4.89,9.49-8.05,16.2-8.05h13.31v-24.5h15.81v24.5h16.6v13.17h-16.6v35.83c0,3.19,2.23,5.39,5.48,5.52h11.79Z"/>
    <path class="st0" d="M569.58,52.02c-.24-.06-.49-.11-.74-.11h-.02c-1.7-.2-3.49-.31-5.36-.31s-3.66.11-5.37.31c-.28,0-.53.05-.74.11-16.23,2.91-28.02,17.04-28.02,33.6s11.85,30.71,28.18,33.6l.06.02c.14.02.25.05.42.05,1.85.22,3.69.33,5.47.33s3.61-.11,5.52-.33l.53-.08c16.28-2.89,28.1-17.02,28.1-33.58s-11.79-30.64-28.04-33.6ZM563.47,103.45c-9.84,0-17.84-8-17.84-17.84s8-17.85,17.84-17.85,17.84,8,17.84,17.85-8,17.84-17.84,17.84Z"/>
    <path class="st0" d="M272.76,26.78v30.38c-3.77-2.51-8.09-4.29-12.78-5.14-.24-.06-.49-.11-.74-.11h-.02c-1.7-.2-3.49-.31-5.36-.31s-3.66.11-5.37.31c-.28,0-.53.05-.74.11-16.23,2.91-28.02,17.04-28.02,33.6s11.85,30.71,28.18,33.6l.06.02c.14.02.25.05.42.05,1.85.22,3.69.33,5.47.33s3.61-.11,5.52-.33l.53-.08c4.71-.83,9.05-2.62,12.84-5.14v5.42h15.37V26.78h-15.37ZM253.87,103.45c-9.84,0-17.84-8-17.84-17.84s8-17.85,17.84-17.85,17.84,8,17.84,17.85-8,17.84-17.84,17.84Z"/>
    <polygon class="st0" points="365.56 51.81 341.72 119.42 320.93 119.42 297.09 51.81 313.39 51.81 331.33 102.67 349.26 51.81 365.56 51.81"/>
    <path class="st0" d="M193.33,51.78v5.39c-3.77-2.51-8.09-4.31-12.79-5.15-.24-.06-.49-.11-.74-.11h-.02c-1.7-.2-3.49-.31-5.36-.31s-3.66.11-5.37.31c-.28,0-.53.05-.74.11-16.23,2.91-28.02,17.04-28.02,33.6s11.85,30.71,28.18,33.6l.06.02c.14.02.25.05.42.05,1.85.22,3.69.33,5.47.33s3.61-.11,5.52-.33l.53-.08c4.71-.83,9.07-2.62,12.86-5.15v5.44h15.37V51.78h-15.37ZM174.43,103.45c-9.84,0-17.84-8-17.84-17.84s8-17.85,17.84-17.85,17.84,8,17.84,17.85-8,17.84-17.84,17.84Z"/>
    <path class="st0" d="M435.02,85.62c0-3.1-.41-6.11-1.19-8.99-3.38-12.45-13.64-22.21-26.84-24.61-.24-.06-.49-.11-.74-.11h-.02c-1.7-.2-3.49-.31-5.36-.31s-3.66.11-5.37.31c-.28,0-.53.05-.74.11-13.2,2.36-23.45,12.13-26.83,24.61-.79,2.88-1.19,5.89-1.19,8.99,0,1.52.09,3.03.28,4.51,1.93,14.58,13.08,26.46,27.89,29.09l.06.02c.14.02.25.05.42.05,1.85.22,3.69.33,5.47.33s3.61-.11,5.52-.33l.53-.08c12.81-2.28,22.87-11.52,26.56-23.42h-17.96c-3.22,4.64-8.58,7.67-14.65,7.67-8.28,0-15.26-5.66-17.26-13.33h51.12c.19-1.48.28-2.99.28-4.51ZM385.46,76.63c3.11-5.3,8.85-8.86,15.42-8.86s12.31,3.57,15.42,8.86h-30.83Z"/>
  </g>
</svg>